<?xml version="1.0" standalone="no"?>
<!DOCTYPE svg PUBLIC "-//W3C//DTD SVG 20010904//EN"
 "http://www.w3.org/TR/2001/REC-SVG-20010904/DTD/svg10.dtd">
<svg version="1.0" xmlns="http://www.w3.org/2000/svg"
 width="2107.000000pt" height="2107.000000pt" viewBox="0 0 2107.000000 2107.000000"
 preserveAspectRatio="xMidYMid meet">
<metadata>
Created by potrace 1.11, written by Peter Selinger 2001-2013
</metadata>
<g transform="translate(0.000000,2107.000000) scale(0.100000,-0.100000)"
fill="#000000" stroke="none">
<path d="M11805 16203 c-4 -10 -958 -2558 -2120 -5663 -1162 -3105 -2116
-5653 -2120 -5662 -7 -17 29 -18 667 -18 l674 0 2122 5658 c1168 3111 2125
5667 2129 5680 l5 22 -675 0 c-633 0 -675 -1 -682 -17z"/>
<path d="M3263 13262 l-3203 -1737 0 -975 0 -975 3204 -1747 c1762 -962 3207
-1748 3210 -1748 3 0 6 511 6 1136 l0 1135 -2230 1112 -2229 1112 2229 1070
2230 1070 0 1143 c0 628 -3 1142 -7 1141 -5 0 -1449 -782 -3210 -1737z"/>
<path d="M14590 13872 l0 -1128 2230 -1095 2230 -1094 -52 -25 c-28 -14 -1030
-509 -2227 -1101 l-2176 -1076 -3 -1136 c-1 -626 1 -1137 4 -1137 3 0 1447
788 3210 1752 l3204 1751 -2 970 -3 970 -3200 1738 c-1760 956 -3203 1738
-3207 1739 -5 0 -8 -508 -8 -1128z"/>
</g>
</svg>
